<?xml version="1.0" encoding="UTF-8"?>
<svg viewBox="0 0 72 72" xmlns="http://www.w3.org/2000/svg" xmlns:xlink="http://www.w3.org/1999/xlink">
 <defs>
  <linearGradient id="a">
   <stop stop-color="#808080" offset="0"/>
   <stop stop-color="#808080" stop-opacity="0" offset="1"/>
  </linearGradient>
  <linearGradient id="j" x1="72.969" x2="93.487" gradientUnits="userSpaceOnUse" xlink:href="#a"/>
  <linearGradient id="i" x1="93.975" x2="100.65" gradientUnits="userSpaceOnUse" xlink:href="#a"/>
  <linearGradient id="h" x1="107.65" x2="118.08" gradientUnits="userSpaceOnUse" xlink:href="#a"/>
  <linearGradient id="g" x1="116.28" x2="135.5" gradientUnits="userSpaceOnUse" xlink:href="#a"/>
  <linearGradient id="f" x1="104.72" x2="111.4" gradientUnits="userSpaceOnUse" xlink:href="#a"/>
  <linearGradient id="e" x1="100.49" x2="106.68" gradientUnits="userSpaceOnUse" xlink:href="#a"/>
  <linearGradient id="d" x1="111.4" x2="118.4" gradientUnits="userSpaceOnUse" xlink:href="#a"/>
  <linearGradient id="c" x1="95.577" x2="106.68" gradientUnits="userSpaceOnUse" xlink:href="#a"/>
  <linearGradient id="b" x1="60.484" x2="63.306" gradientUnits="userSpaceOnUse" xlink:href="#a"/>
 </defs>
 <g transform="translate(-70.629 -.90967)" fill="#fff" fill-rule="evenodd">
  <path d="m143.63 0.90967h72v72h-72z"/>
  <path d="m70.629 0.90967h72v72h-72z"/>
 </g>
 <g transform="translate(-70.629 -.90967)" fill-rule="evenodd">
  <path transform="translate(70.362 3.303)" d="m60 57.27a23.5 4 0 1 1 -47 0 23.5 4 0 1 1 47 0z" fill="#666"/>
  <path d="m101.64 34.303-8.9562 23.612 0.8142 1.3027 1.7912-0.81421 8.4677-22.798-2.1169-1.3027z" fill="#054"/>
  <path d="m101.64 19.322h-2.2798l-0.65137 5.0481 4.071 5.3738-0.81421 2.4426 5.6994 1.3027 1.7912-4.2339 1.6284-9.1191-9.4448-0.8142z" fill="#054"/>
  <path d="m96.262 22.782-2.8114 3.936-3.7486-0.37486-0.37486-1.4994-0.93714 1.8743 1.1246 0.18743 3.1863 5.0606 2.624 0.37486-0.18742-2.0617 2.2491-1.312 2.8114-3.936-0.56228-3.3737-1.8743 0.74971-1.4994 0.37486z"/>
  <path d="m107.51 24.844 1.4994-0.74971 0.56229 1.1246 7.3097-0.56228v1.8743l1.8743 1.1246-1.312 0.18743-0.37486 1.8743 0.56228 1.8743-6.56-3.936-1.1246-0.37486-2.4366-2.4366z"/>
  <path d="m104.7 26.906 2.9989 5.8103 1.6868 0.93714 1.312-3.5611-0.93714 4.6857 0.37485 0.74971 4.4983 4.6857 1.1246 0.37486 1.312 3.3737 0.18743 3.1863-1.4994 0.74971-4.8731-0.93714 0.93714-2.4366-1.4994-0.93714-3.5611-3.936-0.93714 1.1246-0.18743 1.8743 0.74972 1.6869-0.74972 1.8743-0.93714 1.312-0.37485-2.0617-2.624-0.37486-1.312-0.37486 0.74972-4.4983-0.56229-2.8114 0.74971-3.3737-0.18742-2.2491 5.0606 0.37486-1.4994-5.248z"/>
  <path d="m112.94 57.269 0.37485 1.6868 1.1246 0.74971-1.312 2.0617 9.5588 0.56228-0.74972-3.1863-3.7486-0.37486-1.1246-1.4994-0.93714 1.1246-3.1863-1.1246z"/>
  <path d="m99.073 55.957-0.74971 2.0617"/>
  <path d="m98.886 60.081h4.8731l-0.37485-1.8743-3.5611-2.2491h-1.1246l-0.37486 1.1246v0.93714l0.56229 2.0617z"/>
  <path d="m100.39 14.723 1.312 0.74971-0.56228 0.93714-0.74972-1.6869z"/>
  <path d="m89.265 24.533 1.7912-1.4656-0.32569-1.1399-3.094 1.1399-1.6284-1.4656-0.97705-1.6284-11.887-13.516-0.48852 0.81421 10.259 14.656 0.65136 1.6284-1.7912 0.8142 0.32569 0.97705 3.2568 1.1399 0.65137 2.6054 2.4426 0.48852 4.7224 2.4426-2.1169-3.4197-1.7912-1.9541v-2.1169z" fill="#ccc"/>
  <path d="m99.524 21.439-0.97705 1.3027-3.094-0.16284-1.7912 0.8142 1.6284-3.5825 2.9311-1.3027h2.1169l-0.8142 2.9311z" fill="#ccc"/>
  <path d="m109.62 18.996-2.2798 2.9311 0.65137 1.7912 1.9541 2.1169 7.8164-1.1399-0.16284-1.9541-1.1399-1.6284-3.5825-1.7912-3.2568-0.32568z" fill="#ccc"/>
  <path d="m117.6 27.464-1.6284 3.4197 1.3027 0.97705 3.094 0.65136 0.65136 3.5825 1.9541 2.2798 0.65136 2.6054 2.4426 2.1169 5.8623-5.6994 3.2568-9.9333-1.1399-0.32568-1.7912 1.6284-4.2339-3.4197 0.48852-6.0251-3.094 1.9541-4.2339 5.3738-0.48852 1.3027-3.094-0.48852z" fill="#ccc"/>
  <path d="m107.18 24.859-2.7683 0.65136 0.65136 2.4426 2.2798 4.3967 1.7912 1.9541 0.81421-1.7912 1.1399-4.2339-1.7912-2.2798-2.1169-1.1399z" fill="#ccc"/>
  <path d="m100.99 25.022-0.81421 2.1169 2.2798 2.7683-1.1399 1.9541 5.0481 0.48852-1.7912-2.7683-0.65137-3.094-2.9311-1.4656z" fill="#ccc"/>
  <path d="m111.74 47.005-0.65137 3.5825 1.4656 2.4426 0.32568 3.094v1.3027l-0.48852 1.6284-0.97704 1.3027 0.32568 1.4656 1.4656-0.48852 1.3027-1.1399-0.8142-1.3027-0.32568-0.97705 1.9541 0.65136 1.9541-0.48852-1.1399-3.4197 0.97705-6.3508 0.97704-1.7912-0.16284-4.2339-2.2798-2.4426 0.16284 3.7453 1.3027 1.1399-0.48853 1.6284 0.16285 1.3027-1.1399 0.32568-3.9082-0.97705z" fill="#ccc"/>
  <path d="m105.87448,44.23676c-.2857.80759-.20946,1.8305-.94826,2.40875-.18654.437-.71819.51214-.58091-.05645-.1555-.60604.31251-1.64157-.4968-1.88366l-2.85925-.14296c-.6996.50524-1.50877,1.00002-1.73513,1.89427-.6169,1.33861-1.41876,2.62412-1.65604,4.10179l-.84269,3.61155c.50501.60954.81316,1.46378.11005,2.05596-.52623.91889-1.10593,1.81487-1.59873,2.74808-.07786.93395 1.21067.66243 1.81071.83939 .39001.06657 2.47176.79012 1.86478.05683-.43441-.43521-1.12311-1.42235-.4396-1.34277 .7001-.41285-.14215-1.19092-.19832-1.7539 .07351-.96894 1.74818-.39541 1.80309-1.42292 .15402-1.07822.32739-2.15421.52509-3.22405 .28423-.72916 1.03926-1.1659 1.52275-1.77066l4.20779-4.328-.48853-1.79125z" fill="#ccc"/>
  <path transform="matrix(1.5714 0 0 1 29.206 4.625)" d="m63.306 26.278a1.4113 3.0242 0 1 1 -2.8226 0 1.4113 3.0242 0 1 1 2.8226 0z" fill="#f00"/>
  <path d="m89.579 24.421 1.7912-1.4656-0.32568-1.1399-3.094 1.1399-1.6284-1.4656-0.97705-1.6284-11.887-13.516-0.48853 0.81421 10.259 14.656 0.65137 1.6284-1.7912 0.8142 0.32568 0.97705 3.2568 1.1399 0.65136 2.6055 2.4426 0.48852 4.7224 2.4426-2.1169-3.4196-1.7912-1.9541v-2.1169z" fill="url(#j)"/>
  <path d="m99.838 21.327-0.97705 1.3027-3.094-0.16284-1.7912 0.81421 1.6284-3.5825 2.9311-1.3027h2.1169l-0.8142 2.9311z" fill="url(#i)"/>
  <path d="m109.93 18.885-2.2798 2.9311 0.65137 1.7912 1.9541 2.1169 7.8164-1.1399-0.16284-1.9541-1.1399-1.6284-3.5825-1.7912-3.2568-0.32568z" fill="url(#h)"/>
  <path d="m117.91 27.353-1.6284 3.4197 1.3027 0.97704 3.094 0.65137 0.65136 3.5825 1.9541 2.2798 0.65136 2.6055 2.4426 2.1169 5.8623-5.6994 3.2568-9.9333-1.1399-0.32568-1.7912 1.6284-4.2339-3.4197 0.48852-6.0251-3.094 1.9541-4.2339 5.3738-0.48852 1.3027-3.094-0.48852z" fill="url(#g)"/>
  <path d="m107.49 24.747-2.7683 0.65137 0.65136 2.4426 2.2798 4.3967 1.7912 1.9541 0.81421-1.7912 1.1399-4.2339-1.7912-2.2798-2.1169-1.1399z" fill="url(#f)"/>
  <path d="m101.3 24.91-0.81421 2.1169 2.2798 2.7683-1.1399 1.9541 5.0481 0.48853-1.7912-2.7683-0.65137-3.094-2.9311-1.4656z" fill="url(#e)"/>
  <path d="m112.05 46.893-0.65137 3.5825 1.4656 2.4426 0.32568 3.094v1.3027l-0.48852 1.6284-0.97704 1.3027 0.32568 1.4656 1.4656-0.48852 1.3027-1.1399-0.8142-1.3027-0.32568-0.97705 1.9541 0.65136 1.9541-0.48852-1.1399-3.4197 0.97705-6.3508 0.97704-1.7912-0.16284-4.2339-2.2798-2.4426 0.16284 3.7453 1.3027 1.1399-0.48853 1.6284 0.16285 1.3027-1.1399 0.32568-3.9082-0.97704z" fill="url(#d)"/>
  <path d="m106.18854,44.12513c-.2857.8076-.20946,1.8305-.94826,2.40875-.18654.437-.71819.51214-.58091-.05644-.1555-.60604.31251-1.64158-.4968-1.88366l-2.85925-.14296c-.6996.50524-1.50877,1.00002-1.73513,1.89426-.6169,1.33862-1.41876,2.62413-1.65604,4.10179l-.84269,3.61156c.50501.60954.81316,1.46377.11005,2.05595-.52623.91889-1.10592,1.81487-1.59873,2.74808-.07786.93396 1.21067.66243 1.81071.8394 .39001.06657 2.47176.79011 1.86478.05683-.43441-.43521-1.12311-1.42235-.4396-1.34278 .7001-.41285-.14215-1.19092-.19832-1.75389 .07351-.96895 1.74818-.39541 1.80309-1.42292 .15402-1.07822.32739-2.15421.52509-3.22405 .28423-.72916 1.03926-1.1659 1.52275-1.77066l4.20779-4.32801-.48853-1.79125z" fill="url(#c)"/>
  <path transform="matrix(1.5714 0 0 1 29.52 4.5134)" d="m63.306 26.278a1.4113 3.0242 0 1 1 -2.8226 0 1.4113 3.0242 0 1 1 2.8226 0z" fill="url(#b)"/>
  <path d="m112.23 18.834c0.68509-1.4742-0.43505-3.095 0.22616-4.5966-0.08804-1.1845-0.99678-2.128-1.7494-2.9677-1.0311-0.73708-2.392-0.46397-3.5812-0.65016-1.4527 0.06858-3.0341 0.46256-4.104 1.501-0.79109 1.3353-1.7006 2.7663-1.714 4.379-0.24473 1.644-1.6274 2.9956-1.3357 4.7496 0.24415 1.5098 0.44526 3.315 1.6779 4.3601 0.97175 0.71031 2.3821 1.5875 3.3933 0.42764 0.82684-0.77686 1.9735-1.2514 2.5669-2.2477 0.04777-1.292 0.47485-2.5431 1.2047-3.6254 0.55067-1.4096 2.2169-1.1676 3.4153-1.3297z" fill="#fc0"/>
 </g>
</svg>
