<svg id="svg" version="1.1" width="400" height="388.46153846153845" viewBox="0 0 400 388.46153846153845" xmlns="http://www.w3.org/2000/svg" xmlns:xlink="http://www.w3.org/1999/xlink" ><g id="svgg"><path id="path0" d="" stroke="none" fill="#000000" fill-rule="evenodd"></path><path id="path1" d="" stroke="none" fill="#ff0000" fill-rule="evenodd"></path><path id="path2" d="M262.779 69.388 L 262.779 99.125 165.378 99.125 C 66.955 99.125,66.472 99.132,66.472 100.500 C 66.472 100.889,66.051 101.069,65.144 101.069 C 63.364 101.069,62.585 101.408,62.585 102.185 C 62.585 102.539,62.191 103.001,61.710 103.212 C 60.854 103.588,60.834 103.746,60.730 110.884 L 60.624 118.173 61.605 118.173 C 62.391 118.173,62.585 118.365,62.585 119.145 C 62.585 119.922,62.779 120.117,63.557 120.117 C 64.334 120.117,64.529 120.311,64.529 121.088 L 64.529 122.060 163.654 122.060 L 262.779 122.060 262.779 142.274 L 262.779 162.488 295.238 162.488 L 327.697 162.488 327.697 142.274 L 327.697 122.060 337.415 122.060 L 347.133 122.060 347.133 110.829 C 347.133 100.946,347.059 99.569,346.518 99.361 C 346.180 99.232,341.807 99.125,336.800 99.125 L 327.697 99.125 327.697 89.602 C 327.697 80.337,327.676 80.078,326.919 80.078 C 326.349 80.078,326.142 79.819,326.142 79.106 C 326.142 78.328,325.948 78.134,325.170 78.134 C 324.393 78.134,324.198 77.940,324.198 77.162 C 324.198 76.392,324.002 76.190,323.253 76.190 C 322.570 76.190,322.274 75.949,322.184 75.316 C 322.106 74.762,321.748 74.397,321.210 74.320 C 320.680 74.245,320.313 73.878,320.238 73.348 C 320.162 72.818,319.796 72.452,319.266 72.376 C 318.736 72.301,318.370 71.935,318.294 71.405 C 318.219 70.875,317.852 70.508,317.322 70.433 C 316.792 70.357,316.426 69.991,316.350 69.461 C 316.274 68.923,315.908 68.565,315.355 68.486 C 314.722 68.396,314.480 68.101,314.480 67.417 C 314.480 66.668,314.278 66.472,313.508 66.472 C 312.731 66.472,312.536 66.278,312.536 65.500 C 312.536 64.730,312.340 64.529,311.592 64.529 C 310.908 64.529,310.613 64.287,310.523 63.654 C 310.444 63.101,310.086 62.735,309.548 62.658 C 309.018 62.583,308.651 62.216,308.576 61.686 C 308.500 61.157,308.134 60.790,307.604 60.715 C 307.074 60.639,306.708 60.273,306.632 59.743 C 306.557 59.213,306.190 58.846,305.660 58.771 C 305.130 58.696,304.764 58.329,304.689 57.799 C 304.612 57.261,304.246 56.903,303.693 56.824 C 303.060 56.734,302.818 56.439,302.818 55.755 C 302.818 55.007,302.616 54.810,301.846 54.810 C 301.069 54.810,300.875 54.616,300.875 53.839 C 300.875 53.061,300.680 52.867,299.903 52.867 C 299.125 52.867,298.931 52.672,298.931 51.895 C 298.931 51.118,298.737 50.923,297.959 50.923 C 297.247 50.923,296.987 50.716,296.987 50.146 C 296.987 49.576,296.728 49.368,296.016 49.368 C 295.238 49.368,295.044 49.174,295.044 48.397 C 295.044 47.619,294.849 47.425,294.072 47.425 C 293.294 47.425,293.100 47.230,293.100 46.453 C 293.100 45.675,292.906 45.481,292.128 45.481 C 291.351 45.481,291.156 45.287,291.156 44.509 C 291.156 43.797,290.949 43.537,290.379 43.537 C 289.809 43.537,289.602 43.278,289.602 42.566 C 289.602 41.788,289.407 41.594,288.630 41.594 C 287.852 41.594,287.658 41.399,287.658 40.622 L 287.658 39.650 275.219 39.650 L 262.779 39.650 262.779 69.388 M41.853 180.240 C 41.710 180.382,41.594 180.820,41.594 181.212 C 41.594 181.713,41.305 181.924,40.618 181.924 L 39.643 181.924 39.744 202.041 C 39.823 217.790,39.950 222.168,40.330 222.206 C 40.598 222.233,40.991 222.276,41.205 222.303 C 41.419 222.330,41.594 222.683,41.594 223.088 C 41.594 224.283,41.843 224.295,66.088 224.295 L 89.353 224.295 89.477 225.170 C 89.614 226.132,89.578 226.121,92.906 226.190 C 94.918 226.232,95.238 226.340,95.238 226.975 C 95.238 227.840,95.965 228.183,97.797 228.183 C 98.727 228.183,99.125 228.360,99.125 228.774 C 99.125 229.099,99.563 229.565,100.097 229.808 C 100.632 230.052,101.069 230.479,101.069 230.758 C 101.069 231.455,102.332 232.070,103.765 232.070 C 104.697 232.070,104.956 232.239,104.956 232.847 C 104.956 233.418,105.215 233.625,105.928 233.625 C 106.706 233.625,106.900 233.819,106.900 234.597 C 106.900 235.374,107.094 235.569,107.872 235.569 C 108.649 235.569,108.844 235.763,108.844 236.540 C 108.844 237.318,109.038 237.512,109.815 237.512 C 110.593 237.512,110.787 237.707,110.787 238.484 C 110.787 239.256,110.983 239.456,111.738 239.456 C 112.596 239.456,112.700 239.635,112.807 241.302 C 112.908 242.878,113.053 243.167,113.800 243.273 C 114.433 243.363,114.674 243.658,114.674 244.342 C 114.674 245.085,114.877 245.287,115.625 245.287 C 116.483 245.287,116.587 245.466,116.694 247.133 C 116.794 248.697,116.944 248.998,117.671 249.102 C 118.452 249.213,118.539 249.473,118.642 252.017 C 118.747 254.578,118.829 254.821,119.631 254.935 L 120.505 255.059 120.505 263.778 L 120.505 272.498 119.534 272.498 C 118.628 272.498,118.562 272.629,118.562 274.414 C 118.562 276.106,118.459 276.345,117.687 276.455 C 116.941 276.561,116.795 276.850,116.694 278.426 C 116.587 280.093,116.483 280.272,115.625 280.272 C 114.743 280.272,114.674 280.413,114.674 282.216 C 114.674 284.030,114.610 284.159,113.703 284.159 C 113.009 284.159,112.731 284.370,112.731 284.895 C 112.731 285.355,112.367 285.721,111.759 285.874 C 111.155 286.025,110.787 286.393,110.787 286.846 C 110.787 287.298,110.419 287.666,109.815 287.818 C 109.212 287.969,108.844 288.337,108.844 288.789 C 108.844 289.242,108.475 289.610,107.872 289.761 C 107.268 289.913,106.900 290.281,106.900 290.733 C 106.900 291.185,106.532 291.553,105.928 291.705 C 105.324 291.856,104.956 292.224,104.956 292.677 C 104.956 293.129,104.588 293.497,103.984 293.648 C 103.357 293.806,103.013 294.165,103.013 294.662 C 103.013 295.274,102.733 295.442,101.652 295.481 C 99.405 295.561,99.324 295.594,99.198 296.481 C 99.096 297.202,98.791 297.354,97.255 297.453 C 96.153 297.524,95.413 297.763,95.384 298.056 C 95.357 298.324,95.313 298.717,95.287 298.931 C 95.260 299.145,94.454 299.320,93.496 299.320 C 91.968 299.320,91.725 299.438,91.513 300.280 C 91.277 301.223,91.196 301.241,86.744 301.349 C 82.421 301.453,82.210 301.496,82.095 302.308 C 82.019 302.838,81.653 303.205,81.123 303.280 L 80.272 303.401 80.171 324.173 C 80.092 340.532,80.175 345.012,80.560 345.258 C 81.421 345.809,144.522 345.637,144.878 345.084 C 145.247 344.508,145.289 343.903,145.342 338.290 C 145.381 334.189,145.432 333.916,146.161 333.916 C 146.834 333.916,146.939 333.657,146.939 332.000 C 146.939 330.308,147.041 330.069,147.813 329.959 C 148.558 329.853,148.706 329.563,148.806 328.013 C 148.905 326.476,149.057 326.172,149.777 326.069 C 150.311 325.993,150.677 325.628,150.753 325.097 C 150.828 324.567,151.195 324.200,151.725 324.125 C 152.443 324.023,152.594 323.717,152.694 322.157 C 152.801 320.490,152.905 320.311,153.763 320.311 C 154.518 320.311,154.713 320.111,154.713 319.339 C 154.713 318.562,154.908 318.367,155.685 318.367 C 156.463 318.367,156.657 318.173,156.657 317.396 C 156.657 316.618,156.851 316.424,157.629 316.424 C 158.406 316.424,158.601 316.229,158.601 315.452 C 158.601 314.674,158.795 314.480,159.572 314.480 C 160.350 314.480,160.544 314.286,160.544 313.508 C 160.544 312.613,160.684 312.536,162.330 312.536 C 163.762 312.536,164.154 312.389,164.310 311.792 C 164.417 311.382,164.926 310.942,165.440 310.813 C 166.034 310.664,166.375 310.297,166.375 309.808 C 166.375 309.191,166.639 309.038,167.704 309.038 C 169.536 309.038,170.262 308.695,170.262 307.830 C 170.262 307.174,170.597 307.089,173.372 307.046 C 177.537 306.981,177.843 306.895,177.843 305.799 C 177.843 305.477,179.574 305.314,183.771 305.238 C 189.383 305.136,189.699 305.170,189.699 305.873 C 189.699 306.749,190.691 307.082,193.331 307.089 C 194.854 307.093,195.251 307.236,195.408 307.836 C 195.606 308.595,196.593 309.023,198.166 309.033 C 198.654 309.036,199.166 309.344,199.304 309.718 C 199.658 310.678,200.201 310.969,201.652 310.976 C 202.654 310.980,202.915 311.142,202.915 311.759 C 202.915 312.323,203.175 312.536,203.860 312.536 C 204.544 312.536,204.839 312.778,204.929 313.411 C 205.035 314.157,205.324 314.303,206.900 314.404 C 208.567 314.511,208.746 314.615,208.746 315.473 C 208.746 316.228,208.947 316.424,209.718 316.424 C 210.496 316.424,210.690 316.618,210.690 317.396 C 210.690 318.173,210.884 318.367,211.662 318.367 C 212.509 318.367,212.634 318.538,212.634 319.696 C 212.634 321.514,212.976 322.255,213.814 322.255 C 214.253 322.255,214.570 322.587,214.647 323.129 C 214.727 323.691,215.084 324.048,215.646 324.128 C 216.279 324.218,216.521 324.513,216.521 325.197 C 216.521 325.946,216.723 326.142,217.493 326.142 C 218.400 326.142,218.465 326.271,218.465 328.086 C 218.465 329.890,218.533 330.029,219.419 330.029 C 220.335 330.029,220.379 330.145,220.488 332.847 C 220.593 335.434,220.675 335.676,221.477 335.790 C 222.328 335.911,222.352 336.040,222.352 340.510 C 222.352 344.377,222.451 345.144,222.978 345.347 C 224.313 345.859,286.776 345.589,287.207 345.070 C 287.474 344.748,287.589 340.828,287.539 333.708 L 287.464 322.838 283.677 322.726 C 280.018 322.619,279.883 322.583,279.651 321.657 C 279.417 320.725,279.315 320.700,275.760 320.700 C 272.125 320.700,272.109 320.696,272.109 319.728 C 272.109 318.821,271.979 318.756,270.165 318.756 C 268.351 318.756,268.222 318.691,268.222 317.784 C 268.222 317.014,268.025 316.812,267.277 316.812 C 266.593 316.812,266.298 316.571,266.208 315.938 C 266.102 315.191,265.813 315.046,264.237 314.945 C 262.570 314.838,262.391 314.734,262.391 313.876 C 262.391 313.121,262.191 312.925,261.419 312.925 C 260.641 312.925,260.447 312.731,260.447 311.953 C 260.447 311.176,260.253 310.982,259.475 310.982 C 258.698 310.982,258.503 310.787,258.503 310.010 C 258.503 309.240,258.307 309.038,257.559 309.038 C 256.875 309.038,256.580 308.796,256.490 308.163 C 256.410 307.601,256.053 307.244,255.491 307.164 C 254.858 307.075,254.616 306.779,254.616 306.095 C 254.616 305.410,254.403 305.151,253.839 305.151 C 253.130 305.151,252.748 303.671,253.013 301.950 C 253.037 301.794,252.620 301.556,252.087 301.422 C 251.401 301.250,251.118 300.915,251.118 300.275 C 251.118 298.870,250.421 297.376,249.767 297.376 C 249.256 297.376,248.916 295.726,249.115 294.208 C 249.133 294.069,248.717 293.847,248.189 293.715 C 247.253 293.480,247.230 293.386,247.225 289.691 C 247.219 285.163,247.000 284.159,246.019 284.159 C 244.861 284.159,244.993 281.923,246.161 281.757 C 247.175 281.613,247.119 281.906,247.182 276.385 L 247.230 272.109 248.202 272.109 C 249.095 272.109,249.174 271.966,249.174 270.360 C 249.174 269.397,249.349 268.588,249.563 268.562 C 249.776 268.535,250.170 268.491,250.437 268.465 C 250.947 268.414,250.990 268.254,251.069 266.129 C 251.105 265.167,251.325 264.759,251.890 264.612 C 252.315 264.500,252.836 263.955,253.047 263.400 C 253.258 262.845,253.697 262.391,254.023 262.391 C 254.467 262.391,254.616 261.950,254.616 260.641 C 254.616 259.035,254.695 258.892,255.588 258.892 C 256.365 258.892,256.560 258.698,256.560 257.920 C 256.560 257.143,256.754 256.948,257.532 256.948 C 258.309 256.948,258.503 256.754,258.503 255.977 C 258.503 255.199,258.698 255.005,259.475 255.005 C 260.247 255.005,260.447 254.809,260.447 254.054 C 260.447 253.196,260.626 253.092,262.293 252.985 C 263.869 252.884,264.158 252.739,264.264 251.992 C 264.354 251.359,264.649 251.118,265.333 251.118 C 266.082 251.118,266.278 250.916,266.278 250.146 C 266.278 249.239,266.408 249.174,268.222 249.174 C 270.024 249.174,270.165 249.105,270.165 248.223 C 270.165 247.365,270.345 247.261,272.012 247.154 C 273.587 247.053,273.876 246.908,273.982 246.161 L 274.107 245.287 282.632 245.287 L 291.156 245.287 291.156 244.320 L 291.156 243.353 304.665 243.251 C 315.126 243.172,318.184 243.039,318.222 242.663 C 318.248 242.396,318.292 242.007,318.319 241.799 C 318.347 241.580,320.695 241.375,323.907 241.313 C 329.318 241.208,329.449 241.185,329.570 240.330 C 329.686 239.513,329.883 239.456,332.583 239.456 C 335.391 239.456,335.471 239.429,335.471 238.501 C 335.471 237.585,335.587 237.542,338.290 237.432 C 340.855 237.328,341.119 237.241,341.229 236.463 C 341.332 235.743,341.636 235.591,343.173 235.492 C 344.724 235.392,345.014 235.244,345.119 234.500 C 345.227 233.740,345.474 233.625,347.002 233.625 C 348.434 233.625,348.799 233.480,348.964 232.847 C 349.116 232.268,349.494 232.070,350.451 232.070 C 352.214 232.070,352.964 231.723,352.964 230.908 C 352.964 230.528,353.327 230.122,353.770 230.006 C 354.214 229.890,354.672 229.432,354.788 228.989 C 354.935 228.425,355.336 228.168,356.119 228.134 C 358.551 228.029,358.642 227.937,358.746 225.489 C 358.783 224.622,359.004 224.320,359.670 224.225 C 360.232 224.145,360.589 223.789,360.668 223.226 C 360.737 222.745,361.047 222.352,361.357 222.352 C 361.667 222.352,362.114 221.929,362.349 221.413 C 362.584 220.897,363.106 220.388,363.507 220.283 C 364.086 220.132,364.237 219.727,364.237 218.334 C 364.237 216.806,364.352 216.559,365.112 216.451 C 365.941 216.333,365.992 216.131,366.097 212.562 C 366.202 209.011,366.257 208.790,367.069 208.674 C 367.877 208.559,367.937 208.332,368.042 204.956 L 368.154 201.361 317.216 201.361 L 266.278 201.361 266.278 190.671 L 266.278 179.981 154.195 179.981 C 92.549 179.981,41.995 180.097,41.853 180.240 " stroke="none" fill="#6fa1ba" fill-rule="evenodd"></path><path id="path3" d="" stroke="none" fill="#00ffff" fill-rule="evenodd"></path></g></svg>