<?xml version="1.0" encoding="UTF-8"?>
<svg viewBox="0 0 210.69608 219.56113" xmlns="http://www.w3.org/2000/svg">
 <g transform="translate(-274.65 -514.29)">
  <path transform="translate(-176.53 270.48)" d="m562.97 252.38c-3.9233 0.46196-7.9414 1.9461-11.469 3.4062s-6.6954 2.9505-7.875 3.3438c-2.4968 0.83228-3.2426 2.7617-3.9062 4.4688s-1.078 3.5784-1.4062 5.4062c-0.48315 2.6903-0.56326 4.0494-0.65625 5.2188-0.5677 0.38371-1.0785 0.81556-1.5 1.2812-0.96621 1.0674-1.7376 2.3381-2.4688 3.75-1.4622 2.8239-2.7464 6.301-3.8438 9.75-1.61 5.0604-2.5899 9.1007-3.125 11.406l-20.969 0.96875c-0.49992-0.37836-0.83433-0.67858-1.9688-1.4062-1.7034-1.0926-3.8085-2.3654-6.2188-2.9062-2.2285-0.50008-4.7671-0.40227-7.0312-0.3125-2.0068 0.0796-3.2975 0.18559-3.6562 0.21875-0.42341-0.10477-2.5694-0.63916-5.7188-1.2812-3.4426-0.70188-7.4028-1.4375-10.438-1.4375-3.2563 0-6.2739 1.2026-8.625 2.9375s-4.3125 4.0603-4.3125 7.2188c0 2.3001-0.69969 6.4247-0.90625 7.6875-0.58805 0.38171-0.89078 0.54427-1.8125 1.2812-0.78299 0.62606-1.5867 1.3162-2.3125 2.1875s-1.5625 1.9202-1.5625 3.7188v9.375c0 2.8458 1.4697 4.2774 2.5625 5.6875 0.42522 0.54872 0.48615 0.56527 0.84375 0.96875-0.36556 0.92505-0.65783 1.6328-1.2812 3.5-0.46801 1.4018-0.92906 2.8855-1.25 4.3125s-0.61534 2.6421-0.28125 4.3125c0.46583 2.3291 1.7929 4.5641 3.875 6.7188s5.0256 4.0876 8.6875 4.4688c3.4839 0.36264 8.7092-0.17027 13.844-0.90625 2.5673-0.36799 5.0568-0.80759 7.125-1.25s3.5261-0.72247 4.9375-1.4375c1.3803-0.69927 1.9925-1.6017 2.625-2.5s1.1576-1.8722 1.625-2.7812c0.45533-0.8857 0.50278-1.0521 0.78125-1.6875 1.4005-0.0912 5.4608-0.36178 11.219-0.71875 6.6726-0.41367 14.129-0.8125 14.906-0.8125-0.22087 0 1.5421 0.63021 2.8125 1.5938 0.53079 0.40258 0.55686 0.47752 0.9375 0.8125-0.98983 3.0803-9.5466 29.65-12.75 43.531-3.456 14.976-6.125 47.847-6.125 55.781 0 4.3526 1.9837 7.7083 4.625 9.375s5.5316 1.9062 7.75 1.9062c1.5006 0 7.4004 0.4158 13.469 0.625s12.286 0.32683 16.469-0.71875c6.7674-1.6918 11.375-3.4062 11.375-3.4062a3.0003 3.0003 0 0 0 1.9375 -3.0312l-1.6562-21.281v-12.156c2.076-0.20276 7.23-0.71508 14.812-1.5312 4.4871-0.48299 9.0794-0.99967 12.781-1.4688 1.8509-0.23454 3.4814-0.45269 4.7812-0.65625s2.0961-0.31329 3.0312-0.625c2.8608-0.95361 4.8324-0.97204 6.9688-0.28125 0.42483 0.13737 1.8611 1.1722 2.875 2.2188 0.73907 0.76286 0.99456 1.1118 1.25 1.4375 0.0948 0.79681 0.76459 6.461 1.5312 13.281 0.40945 3.6425 0.81943 7.3799 1.125 10.406s0.5 5.5756 0.5 5.9062c0 2.8269 1.1277 5.7673 2.6875 8.7188 0.7799 1.4757 1.7005 2.8528 2.8125 4.0312s2.5276 2.375 4.6875 2.375c1.651 0 9.7998 0.0112 18.031-0.125 4.1157-0.0681 8.2396-0.1871 11.625-0.34375s5.6043-0.19943 7.5312-0.75c1.9071-0.54489 3.334-2.1419 3.9375-3.6875s0.69809-3.0846 0.65625-4.625c-0.0837-3.0807-0.84137-6.2405-1.4062-8.5-0.42905-1.7162-3.0059-14.353-5.3438-26.062-2.2291-11.165-4.1216-20.844-4.3125-21.812 0.37123-0.61359 0.71428-1.1409 1.4375-2.5938 1.0371-2.0833 2.25-4.4342 2.25-7.25 0-1.4916-0.28746-4.1509-0.71875-8.3438s-1.0054-9.522-1.625-14.938c-1.2392-10.831-2.5929-21.745-3.2188-25.188-0.88827-4.8855 0.65035-17.202-2.1875-33.094-1.4236-7.9724-4.2367-17.785-8.0938-26.281s-8.5219-15.924-15.344-18.438c-5.6739-2.0904-12.081-3.0008-17.688-3.5625s-10.605-0.84278-12.438-1.25c-2.4924-0.55388-8.1654-1.7726-14.094-2.7812s-11.887-1.874-16.125-1.375z"/>
  <path d="m387.71746,528.77759c-.1875-.5 1.125-5.3125 1.125-5.3125s-3.9375.84375-4.1875-.6875c-.11259-.68964 2.3125-3.625 2.8125-4.6875s2.1875-5.375 4.5-3.1875 4,3.9375 4.0625,5-3.75,2.9375-3.75,2.9375 .46826,5.20039-.4375,6.3125c-1.0109,1.2412-4.125-.375-4.125-.375z" fill="#e9ddaf"/>
  <path d="m391.68621,514.69666c.10047.61077.29551,1.58746.65625,2.21875 .5.875.4375,3-.3125,3.1875s-5.5,1.6875-5.625,2.5625 2.53125.0312 2.53125.0312c-.0755.72037-.21651,1.29113-.3125,1.90625 .91163.0571 2.13511.60938 2.28125,1.4375 .12587.71329-.0217,2.33747-.15625,3.5625 .44622-.0185.83529-.12016 1.09375-.4375 .90576-1.11211.4375-6.3125.4375-6.3125s3.8125-1.875 3.75-2.9375-1.75-2.8125-4.0625-5c-.0925-.0875-.19073-.1514-.28125-.21875z" fill="#786721"/>
  <path d="m373.27 525.28s-4.9607 1.6536-5.9252 1.5158-0.43521-1.5828-0.17225-2.3081c0.7252-2.0002 3.0315-3.6516 4.4439-4.5817 1.061-0.69872 6.6142-0.2756 7.5788 0.41338s1.378 2.067 0.41338 2.6181-6.3386 2.3425-6.3386 2.3425z" fill="#c83737"/>
  <path d="m378.74871,520.13416c.20426.4385.53602,1.17265.40625,1.40625-.17225.31004-1.18996.9311-1.5,1s-3.37524.19316-4.71875.46875-3.61786,2.17396-4.03125,2.65625 .0866.55935.5.59375c.68473-.20922 2.52626-.65367 4.1875-1.0625 .52891-.17695 5.11953-1.72901 6.03125-2.25 .96458-.55118.52707-1.93601-.4375-2.625-.0977-.0698-.25512-.12407-.4375-.1875z" fill="#800000"/>
  <path d="m372.38 525.03s1.1713 3.9616 1.3091 4.7884c-0.2756 0.41338 2.0669 0.96457 2.0669 0.96457l3.1693-1.7914s-1.337-1.288-2.2047-1.7914c-0.90632-0.52567-2.1014-2.9282-2.1014-2.9282-0.57889-0.35799-2.0447 0.13212-2.2392 0.75787z" fill="#f4eed7"/>
  <path d="m374.06121,524.16541c-.66559.0162-1.54162.40569-1.6875.875 0,0 .2457.81839.46875,1.59375 .40655-.13087.88208-.26958 1.15625-.25 .48229.0344 2.37922.81804 3.0625,1.78125 .31914.44989.3125,1.625.3125,1.625l.375-.125 1.1875-.65625c0,0-1.35097-1.30919-2.21875-1.8125-.90632-.52567-2.09375-2.90625-2.09375-2.90625-.14472-.0895-.34064-.13038-.5625-.125z" fill="#786721"/>
  <path d="m396.75 526.73s0.65533-0.72747 0.53033-3.9775c0.5625 1.4375 0.61872 4.5078 0.61872 4.5078s0.91606-0.86503 0.35356-2.74c0.5625 0.4375 1.5026 2.9168 1.5026 2.9168l1.591-1.0607s-0.94455-2.5337-1.9446-4.5962c0.5625 0.5625 2.6472 4.4061 2.2097 3.0936 0 0 0.0732-0.52221-0.17677-2.2097 1.125 1.375 2.0329 4.4194 2.0329 4.4194l2.6516-0.0884s-0.63833-2.7301-1.3258-5.4801c1.9375 3.125 2.1213 4.9498 2.1213 4.9498l1.6794 1.5026c1.5092-0.98372 1.1098-2.9217 1.4142-4.5078l0.17677 1.7678c0.99672 2.1913 0.25789-1.981 0.35356-3.0936l1.7678 5.0381 3.3588-0.7955 0.44194-4.5078 0.0884 6.7175 2.2981 0.26516c0.32333-0.95475-0.12439-2.0637-0.61872-3.182 0.77155 0.9476 1.5443 1.895 1.5026 3.0052 0.27446-0.82496 0.6985-1.6499 0.17678-2.4749 0.59891 0.54608 0.93875 1.144 0.7071 1.8562l3.1132-0.91421c0.88197 0.65096 0.36032-2.4411 0.33395-4.2123l0.7955 1.4142 0.61871-3.0936c-0.37348 4.6109 0.0168 4.8942 0.0884 6.9827l1.3258 0.35355 0.7071-2.74 0.35356 4.6846 1.3258 0.0884-0.0884-3.7123 1.9446 3.5355 1.3258-0.88388-0.7071-3.9775 2.74 5.3917-0.17678-3.2704 2.1213 3.3588s2.5633 0.7955 2.0329 0.7955-1.3258-2.74-1.3258-2.74l2.74 3.6239-1.3258 1.0607-41.366-6.4524z" fill="#4a0"/>
  <path d="m363.9 546.77c-5.5118 0.27559-11.299 27.008-11.299 27.008l-24.252 1.1024s-4.6097-3.6504-7.9922-4.4095c-3.0686-0.6886-10.197 0-10.197 0s-11.024-2.7559-15.984-2.7559-9.9213 3.8583-9.9213 7.1654-1.1024 9.3702-1.1024 9.3702-5.5118 3.3071-5.5118 5.5118v9.3701c0 2.2047 3.8583 6.063 3.8583 6.063s-3.8583 9.3701-3.3071 12.126 4.4118 8.2455 9.9213 8.819c5.5022 0.57273 21.404-1.8645 24.252-3.3071 1.9668-0.99635 4.4095-7.1654 4.4095-7.1654s25.355-1.6536 28.11-1.6536 7.1654 4.4095 7.1654 4.4095-9.9213 30.866-13.228 45.197-6.063 47.953-6.063 55.118 5.5118 8.2678 9.3701 8.2678 22.599 1.6536 29.213 0 11.024-3.3071 11.024-3.3071l-1.6536-21.496v-14.882s34.173-3.3071 37.481-4.4095 6.0743-1.1631 8.819-0.27559c2.8431 0.91933 6.063 5.2362 6.063 5.2362s3.3071 27.559 3.3071 30.866 3.8583 12.126 7.1654 12.126 32.52 0 36.378-1.1024 2.2047-8.819 1.1024-13.228-9.9213-49.055-9.9213-49.055 3.8583-6.063 3.8583-9.3701-4.4095-41.89-5.5118-47.953 0.55119-17.638-2.2047-33.071-11.024-38.583-21.496-42.441-24.803-3.5827-29.764-4.6851-22.437-4.9317-29.213-4.1339-15.433 5.5119-18.74 6.6142-4.1339 14.331-4.1339 14.331z" fill="#b8b4ab"/>
  <path d="m363.9 546.76c-5.5118 0.27559-11.312 27.031-11.312 27.031h-0.1875l3.4688 1 8.0938-25.156zm-69.719 20.969c-4.9607 0-9.9375 3.8491-9.9375 7.1562 0 2.9169-0.76795 7.4079-0.96875 8.5625l1.25-0.125c0.2755-2.1845 1.1593-8.6732 2.25-10.656 1.7469-3.1762 4.462-3.4942 5.9062-3.4688 2.5232 0.0445 3.7966-0.35399 4.5938-1.25-1.1479-0.13926-2.2256-0.21875-3.0938-0.21875zm21.594 2.4375c-2.5303 0.03-4.8034 0.23458-5.3125 0.28125l2.825 2.6313-8.4812 5.65 1.9661 26.97 4.6007-1.0501c-2.4228-6.7661-2.0369-15.075-2.0778-22.005l4.7756-0.94049c0.3617-1.5382 3.6534-5.7137 7.0166-7.85-0.3155-1.1473-0.68841-2.2771-1.0625-3.4062-1.1379-0.20704-2.6917-0.29972-4.25-0.28125zm-31.375 14.125-1.4375 0.0625c-0.17758 0.107-5.3125 3.2383-5.3125 5.4062v9.375c0.42975 1.36 1.2251 0.48972 2.5938 0.25-0.47494-2.4934-0.36866-9.8626 0.34375-10.812s3.8125-4.2812 3.8125-4.2812zm-3.0312 20.75c0.20859 1.6365-3.7421 8.4059-3.1875 12.281 0.36921 0.92104 1.6158-0.90105 2.4062-1.3125l1.9062-8.1875c3.2376-1.8418 6.4008-1.8203 9.9062-1.625-3.8242-0.21806-9.4728-0.61081-11.031-1.1562zm159.74 83.837c-4.8826-0.19529-12.908-6.9352-8.0192-0.9931 0 0 3.2812 27.537 3.2812 30.844 0 1.1503 0.50201 2.9941 1.25 4.875 0 0 12.475 0.67497 12.713-4.3119zm-21.2-148.2s7.3884-0.67167 8.0601 0.67168 16.792 49.704 16.792 49.704-3.0225 8.06-3.6942 12.426l-1.3433 33.248-4.1622-0.94989-3.8333 2.6459 3.0563 3.104c-3.4197 14.751-0.74637 18.534-1.1059 27.776l-7.4699 1.5808-0.72928-10.19c-0.23767-2.967-4.4215-3.231-4.5626-5.1598-0.47494-2.6122 1.5977-15.9 1.5977-15.9l7.4053-5.2989 1.7438-12.049-7.7242-14.777zm-55.726 48.362-16.969 25.656c2.3956 1.2441 4.8438 3.7188 4.8438 3.7188s-9.9429 30.888-13.25 45.219-6.0625 47.928-6.0625 55.094c0 0.76212 0.0714 1.4628 0.1875 2.0938 0 0 2.0321-1.8687 7.7314 0.0311l1.9064-42.281 5.9312-5.7061s-2.5707-12.521-2.1313-14.718c1.8998-9.4989 7.4431-24.579 8.7998-25.414 3.0871-1.8998 10.443-10.187 10.443-10.187l2.6469-10.972-6.6716 5.0345 2.8438-19.725zm23.969-63.312c-0.5014 0.0155-0.95153 0.0439-1.375 0.0937-6.7755 0.7978-15.443 5.5226-18.75 6.625s-4.125 14.312-4.125 14.312c-0.37433 0.0187-0.75003 0.1914-1.125 0.4375l0.375 22.875 3.4375-2.375s-1.0042-1.162-0.4521-4.0829c1.2124-6.4146 9.9451-3.4476 13.135-0.75751 1.3216 1.1145 1.0046 11.247 1.0046 11.247s-6.8796 0.84375-9.0625 0.84375-3.7812 0.5625-3.7812 0.5625l1.5 2.9688 4.9688 0.65625-8.8438 5c0.15171 2.7253 0.32528 5.2944 2.0312 5.8438l7.1562-2.6562-6.1875 7.5 2.9062 12.625 2.6875 4.1875 1.9375 6.125s2.3325-2.5196 3.8438-2.6875 9.5742 1.1717 9.4062 0.5 1.8438-5.7188 1.8438-5.7188-5.3637-0.65625-6.875-0.65625-8.4062 1.6562-8.4062 1.6562l-1.9375-4.375s9.3442-3.1525 10.688-3.6562 8.7188 2.3438 8.7188 2.3438l-0.5-2.6875s-5.5512-2.8633-7.0625-3.0312-11.406 4.0312-11.406 4.0312-2.8475-8.3988-2.3438-9.4062 9.4062-5.7188 9.4062-5.7188 2.4258-20.457 2.5938-21.969-2.7638-4.9883-2.7638-4.9883 4.558-0.73336 5.87-3.2621c2.0591-3.9688 12.269-4.1871 12.269-4.1871s0.19834-3.3624-3.2841-7.4726c-0.20178-4.9507 0.68091-15.231 0.81539-20.152-3.1364-0.41204-6.0976-0.66226-8.3125-0.59375zm11.438 48.375-10.227 0.99209-0.0233 1.6954 7.7188 1.5v-1.5z" fill="#e7e7dd"/>
  <path d="m412.96 534.37s2.4803 14.331 0.27559 15.709-2.4803 6.3386-2.4803 6.3386 2.4803 8.2678 2.4803 10.473-0.55118 6.3386-1.1024 9.0946 3.0315 8.819 3.0315 10.197-0.82678 19.291-2.7559 21.496-6.3386 12.953-6.3386 12.953-17.638 1.378-21.772 1.1024-8.2678-2.4803-8.2678-2.4803 7.9922 5.2362 8.819 6.3386 10.197 1.6536 10.197 1.6536 4.6851 0.55118 3.8583 2.2047-4.9607 3.5827-4.9607 3.5827 14.606-1.6536 16.26-3.0315 10.748-19.567 12.677-19.843 3.0315-3.5827 3.0315-3.5827 4.1339-16.811 3.0315-17.638-2.7559-9.6457-2.7559-12.402-2.4803-33.622-5.5118-36.654-7.7166-5.5118-7.7166-5.5118zm18.476 6.608s21.5 46.022 21.5 50.156-2.2101 46.866-3.3125 47.969-8.267 0.83216-9.0938 3.3125-2.2301 26.997-2.7812 28.375-7.4203 1.9318-9.625 1.6562 4.9458 3.5625 6.875 3.5625 10.196-1.9062 12.125-1.9062 5.247 0.53125 6.625 0.53125 5.7926 1.9459 6.3438 3.875 1.6363 12.108 2.1875 17.344 5.25 26.483 5.25 28.688c0 1.4293-1.9274 4.2372-3.3125 6.125 7.2338-0.15119 14.003-0.41615 15.719-0.90625 3.8583-1.1024 2.1961-8.8093 1.0938-13.219s-9.9062-49.062-9.9062-49.062 3.8438-6.0679 3.8438-9.375-4.3976-41.874-5.5-47.938 0.53718-17.661-2.2188-33.094c-1.677-9.391-5.3927-21.605-10.406-30.625-8.2458-3.1607-16.448-6.5847-25.406-5.4688zm-66.719 8.8125s-6.872 23.149-8.25 26.594c-2.7559 1.2402-13.592 1.3804-20.406 1.6562-2.1112 0.0855-6.3438 0-6.3438 0s-2.889-3.8381-5.0938-3.5625-6.4569 4.2241-7.9254 7.5689c-1.3672 3.1141-0.46923 8.2719-0.19364 10.201s0.55657 10.758 0.55657 12.136-6.9033 1.625-8.2812 1.625-3.4526-16.995-2.8874-24.444c0.34203-4.5079 8.4186-8.3371 8.4186-8.3371l-13.781-3.0312s1.0824 3.3039 0.53125 4.4062-2.4688 10.188-2.4688 10.188l-8-0.8125-2.7002 0.3315s2.6916 0.481 3.7939 0.481 4.9688 2.2188 4.9688 2.2188l-0.53125 17.625-10.5 0.84375 10.5 1.0938s2.7557 1.6589 3.0312 3.3125 1.625 12.938 1.625 12.938-10.727 1.6619-12.656 1.9375c-0.64746 0.0925-1.5117 0.41044-2.375 0.78125 0.75183 0.28499 1.542 0.50705 2.375 0.59375 5.5022 0.57273 21.402-1.8699 24.25-3.3125 1.9668-0.99635 4.4062-7.1562 4.4062-7.1562s25.338-1.6562 28.094-1.6562 7.1875 4.4062 7.1875 4.4062 4e-5 0.0311 0 0.0312l0.125-0.0312s2.425-7.387 3.875-11c2.894-7.211 9.625-18.738 9.625-21.219s0.0763-11.472-0.8125-13.25c-0.96458-1.9292-1.5256-5.0935-1.25-8.125s1.0938-15.031 1.0938-15.031zm9.3838 44.659c-1.397 1.0713-1.1024 4.4095-0.68898 5.2363s0.82678-3.8583 1.378-3.8583 4.2717 4.1339 4.2717 4.1339-2.0669 1.6536-2.8937 1.6536-2.2047-0.41338-2.2047-0.41338 0.27559 1.7914 1.2402 1.7914 7.9648-2.2631 8.9568-2.2047c2.3425 0.13779 13.642 2.6181 15.158 2.4803s2.4803-2.6181 1.378-2.8937-5.0985-7.441-6.8898-7.5788-3.2605-1.0411-10.473-1.2402c-1.54-0.0425-6.1927 0.56265-9.2324 2.8937zm13.642-26.181s-0.82677-5.7874 0.82678-6.752 3.5827-1.6536 5.3741-1.1024 7.0276 5.2363 7.8544 6.8898c0.64337 1.2868 1.6536 6.752 1.6536 6.752s-10.473 0.82678-11.024 0.82678c-0.15723-2.1461 1.9527-2.3179 0.41338-4.6851-1.6536-0.55119-5.0985-1.9292-5.0985-1.9292zm-18.051-0.27559s-2.2047-4.6851 0.2756-5.5118 5.5801 0.0932 7.3032 1.9292c2.435 2.5945 3.4449 10.197 2.0669 10.473s-8.2678 0-8.2678 0 4.6851-0.55118 4.4095-2.2047-0.55119-1.6536-2.3425-2.7559c-1.1736-0.72218-3.4449-1.9291-3.4449-1.9291zm-18.756 111.05s6.6277 3.5994 8.2812 3.875 4.4062 6.3438 4.4062 6.3438-0.54257 4.1363-0.81816 7.9946c-0.13884 1.9438-2.4916 14.607-0.83809 16.537s5.7899 8.5453 4.6875 10.75c-0.45414 0.90828-1.1392 2.0721-1.75 3.1562 2.5878-0.0856 4.8614-0.29347 6.4375-0.6875 6.6142-1.6536 11.031-3.3125 11.031-3.3125l-1.6562-21.5v-14.875s34.162-3.3039 37.469-4.4062 6.0991-1.1688 8.8438-0.28125c1.277 0.41293 2.6156 1.509 3.7188 2.5938l0.40625-0.375s-3.8828-5.2437-6.625-4.9688c-18.003 1.8048-46.843 4.4119-49.875 4.6875s-13.508-3.875-15.438-3.875-8.2812-1.6562-8.2812-1.6562z" fill="#595151"/>
  <path d="m393.74 525.98c0.63502-0.97405-0.23847-1.8132-0.20595-2.6366 0.45727 1.008 1.0096 2.1347 0.82677 2.3425 1.5039-0.1795 1.3945-1.2277 1.9292-1.9292v2.0669l2.6181 0.68899c1.1183-0.877 0.47356-2.0059 0.55119-3.0315l1.1024 1.6536c-0.31629 0.73187 1.5282 1.2466 2.2047-0.82677 0.13779-0.82678-0.82678-2.8937-0.82678-2.8937s1.1363 1.6861 1.5854 2.5925c0.35613 0.71878 0.89493 2.0925 0.89493 2.0925 1.0375-0.2496 1.8359-0.57805 1.8991-1.3605 0.0597-0.73903-0.59366-1.9269-0.42027-2.3826l1.1393 2.2274c0.69648 1.3617 0.36294 2.4434 1.5158 0.13779l1.378-2.7559c-0.35478 1.8036-1.8072 5.528-0.96457 5.2363h1.7914c1.4119-0.13825 0.79047-2.0839 0.82678-3.4449l0.68898 0.82678c0.83348 0.64373 1.3812-0.92135 0.87796-3.2446l0.77559 1.591c1.25 2.1875 0.63928-2.7146 0.63928-2.7146 0.48201 0.6249 1.2026 2.959 0.87648 4.2303l1.1024-0.68898-0.68898 3.8583c1.9244 0.65474 3.6762 0.91298 4.2717-0.1378 0.78085-1.378 3.0645-8.0058 2.3425-4.1339-0.13937 0.74746-0.73515 5.4587-0.0512 3.5925 0.23476-0.64053 0.83159-2.7989 0.81898-2.5792-0.0902 1.5714 0.52218 3.0192 1.8134 1.3789l1.8283-3.219s-1.1024 3.0315-0.82678 3.9961-0.16042 2.5684 0.96458 2.7559c0 0 1.2288-3.1083 1.7914-3.8583-0.375 1-0.96458 3.9961-0.96458 3.9961l1.7914 0.55118s-0.27333-4.0837 0.13779-6.063c0.27234-1.3112 1.5158-3.7205 1.5158-3.7205s-0.836 3.7464-0.82678 5.6496c7e-3 1.4876 0.68898 4.4095 0.68898 4.4095 0.34862-1.3518 0.25124-2.6294 1.5158-4.1339l0.0384 3.0669c-0.0689 1.2537 0.27142 1.4845 1.2018 0.24017 0.21786 1.3072 0.97231-2.3006 1.1408-3.4946 0.0861-0.6102 0.5621 1.2585 0.92618 1.841 0.64269 1.0283 0.0797 3.8312 2.2047 2.8937 0 0 1.378-2.6181 1.378-1.7914s0.13779 2.7559 0.13779 2.7559c-0.4194 0.52425 1.4176 0.98399 1.7914 0.13779 0.1378-0.55118 2.3884-2.3002 1.2884-0.66339-0.31691 0.47156-2.3297 2.3553 0.0128 3.3199s2.0059 2.4419 2.0059 2.4419l-4.4848-3.53s-1.8696-0.15356-3.4961-0.29135c-0.70013-0.0593-2.4916-0.72589-3.3184-0.86369s-1.7914-0.55118-1.1024-0.41339 1.5158 2.067 1.5158 2.067c-0.68922-0.73491-1.3163-1.4698-2.8937-2.2047-2.2085-0.1004-2.5669-0.63734-6.6255-0.30119 0 0 1.4134 1.6095 0.97589 1.2658-0.99107-0.42295-0.8921-0.82475-2.2601-1.2658 0 0-6.0946-1.003-7.8446-0.94046 1.3125 0.25 2.0514 2.3098 2.0514 2.3098s-1.1723-2.0598-3.7973-2.9973c0.73621 0.92902 0.40647 1.8217 0.55119 2.7559-0.60056-1.114-0.55436-2.5052-2.2047-3.1693 0 0-9.6457-1.1024-10.197-1.5158-1.875-0.9375-6.0803-1.4604-7.924-1.7729z" fill="#447821"/>
 </g>
</svg>
