<?xml version="1.0" encoding="UTF-8"?>
<svg viewBox="0 0 199.69678 267.0202" xmlns="http://www.w3.org/2000/svg" xmlns:xlink="http://www.w3.org/1999/xlink">
 <defs>
  <filter id="a">
   <feGaussianBlur stdDeviation=".48009"/>
  </filter>
  <filter id="j">
   <feGaussianBlur stdDeviation="2.14525"/>
  </filter>
  <filter id="h">
   <feGaussianBlur stdDeviation="1.20392"/>
  </filter>
  <filter id="i" x="-.31546" y="-.0676" width="1.6309" height="1.1352">
   <feGaussianBlur stdDeviation=".56333"/>
  </filter>
  <filter id="g" x="-.29243" y="-.12303" width="1.5849" height="1.2461">
   <feGaussianBlur stdDeviation="1.46189"/>
  </filter>
  <linearGradient id="b">
   <stop stop-color="#fff" offset="0"/>
   <stop stop-color="#fff" stop-opacity="0" offset="1"/>
  </linearGradient>
  <linearGradient id="f" x1="-207.39" x2="-166.04" gradientUnits="userSpaceOnUse">
   <stop stop-color="#552d21" offset="0"/>
   <stop stop-color="#7b4231" offset="1"/>
  </linearGradient>
  <pattern id="k" width="30.06602" height="5.18058" patternUnits="userSpaceOnUse">
   <path d="m7.597.061c-2.518-.248-4.941.241-7.607,1.727v1.273c2.783-1.63 5.183-2.009 7.482-1.781s4.497,1.081 6.781,1.938c4.567,1.713 9.551,3.458 15.813-.157l-.004-1.273c-6.44,3.709-10.816,1.982-15.371.273-2.278-.854-4.576-1.75-7.094-2z"/>
  </pattern>
  <radialGradient id="c" cx="-173.15" cy="823.78" r="11.461" gradientTransform="matrix(.46489 -1.8279e-6 3.5979e-6 .91508 -92.656 69.957)" gradientUnits="userSpaceOnUse">
   <stop stop-color="#f6adcd" offset="0"/>
   <stop stop-color="#c41562" offset="1"/>
  </radialGradient>
  <radialGradient id="d" cx="-273.51" cy="762.45" r="21.992" gradientTransform="matrix(1 0 0 .56338 0 332.9)" gradientUnits="userSpaceOnUse" xlink:href="#b"/>
  <radialGradient id="e" cx="149.07" cy="44.711" r="26.478" gradientTransform="matrix(.97934 -.00076885 .00082165 1.0466 2.9902 -2.0774)" gradientUnits="userSpaceOnUse" xlink:href="#b"/>
 </defs>
 <g transform="translate(221.75 -795.41)">
  <path transform="translate(120.21 59.693)" d="m-322.45 995.69c1.239 0 43.674-4.0267 43.674-4.0267s-12.39-7.4339-16.417-7.4339-14.558 0.30975-19.204 3.0975-8.6729 8.0534-8.0534 8.3632z" fill-rule="evenodd" stroke="#000" stroke-linecap="round" stroke-linejoin="round" stroke-width=".5"/>
  <path transform="translate(120.21 59.693)" d="m-322.76 842.36s-4.3364 1.239-8.6729 1.8585-6.1949 1.8585-6.1949 1.8585l-4.3364 24.78c1.4938-3.8567 13.745-18.802 17.656-15.487 3.0975 2.478 21.992 11.151 23.85 14.248s26.638 16.107 26.638 16.107l36.55-9.9119 5.5754-11.151s9.2924 1.8585 13.629-7.4339 6.1949-19.204 6.1949-19.204 6.1949-1.8585-1.239-1.8585-109.65 6.1949-109.65 6.1949z" fill="#84401e" fill-rule="evenodd"/>
  <path d="m-177.47 1028.8c2.5516-18.74-1.0288-37.48 3.0763-56.22l-8.5676-18.949-4.7326 34.322-15.124-4.8656c0.37326-17.853 3.6704-41.573 14.587-48.562l16.806 2.7448 25.801-44.248 21.903 38.352 14.566 7.5611c3.5564 2.2125-4.6602 9.1482 4.4184 17.114 3.2005 2.8082 9.6439-1.0798 22.999-6.0001l4.0518 14.625c-7.0603 4.1841-23.546 14.171-30.505 13.854-3.0276-0.138-6.2882-3.1066-7.6689-4.152-33.321-25.231-11.933-6.1791-8.9012 10.849-4.5557-7.3111 4.394-29.209 5.7775-33.841 2.2593-7.5642 11.376-11.458 8.6963-7.1596l-14.717 79.531-20.08-39.672-32.387 44.717z" fill="#ffb380" stroke="#000" stroke-linecap="round" stroke-linejoin="round" stroke-width=".96142"/>
  <path d="m-83.173 1052.5c2.8583 11.668-15.293 6.6222-35.326 5.4415-9.848 2.6042-20.626 4.331-20.624-3.0039 0.00241-8.192 5.1667-15.643 23.41-15.643s28.346 3.6398 32.541 13.205z" fill="#502d16" stroke="#000" stroke-width=".73572"/>
  <path d="m-158.54 1054c0 6.5181 1.7164 7.4403-14.263 7.4403s-22.698 0.0352-22.698-6.4829 4.5255-12.446 20.505-12.446 16.456 4.9709 16.456 11.489z" fill="#502d16" stroke="#000" stroke-width=".61419"/>
  <path d="m-165.98 1043c0 1.3751-3.7492 2.4911-8.3687 2.4911s-8.3687-1.116-8.3687-2.4911c1.212-0.3354 14.16 0.0379 16.737 0z" fill="#d45500" stroke="#000" stroke-linecap="round" stroke-linejoin="round" stroke-width=".61419"/>
  <path d="m-185.57 1042.6c0.61009-7.2231 20.429 6.3038 20.353 0-0.62006-7.0796-20.124 6.0592-20.353 0z" fill="none" stroke="#000" stroke-width="1.2284"/>
  <path d="m-165.64 928.84 46.81-1.3573c14.558 8.3481 6.4758 2.4449 20.571 28.537-5.2399 1.9124-8.7334 9.5592-13.973 8.672l-2.5777-12.842 11.5 90.755c-19.201 10.579-41.302 28.2-59.562 7.7722-10.323-11.548-34.115-4.7176-38.138 3.7782-1.0361-3.0323 0.40588-13.353 2.9092-26.196 5.3675-27.539 15.614-66.68 16.774-70.453l-4.072 15.53c-12.718 0.93901-14.722-6.298-21.448-9.0489 15.207-28.863 18.611-39.454 41.207-35.147z" fill="#84401e" stroke="#000" stroke-linecap="round" stroke-linejoin="round" stroke-width=".91585"/>
  <path transform="matrix(.91927 .093864 -.095589 .90269 -224.84 374.18)" d="m114.77 604.68h14.018c-33.885 14.884-28.266 44.637-20.571 43.293-8.0837-0.07014-11.47-3.6243-16.225-5.6213-1.1111-16.961 5.3639-34.566 22.778-37.672z" fill="#e2807a" filter="url(#h)" opacity=".51053" stroke="#c03434" stroke-linecap="round" stroke-linejoin="round"/>
  <path d="m-202.68 835.53c-6.9192 35.207-5.3183 54.82 2.782 71.496 8.4346 17.365 53.299 27.22 61.712 27.875 8.2796-0.93664 32.737-17.794 34.318-32.65l6.1876-58.136c-28.073-59.323-67.626-66.149-105-8.5848z" fill="#ffb380" fill-rule="evenodd" stroke="#000" stroke-width=".76632"/>
  <path d="m-125.42 859.62 1.8585 21.682 15.178 5.8852c7.1802-7.2702 5.0388-14.989 4.3364-24.47l-7.4339-5.5754c-5.2072-2.184-8.878 1.3033-13.609 2.524l-0.18868-0.00575-0.14103-0.04023-1e-5 -2e-5z" fill="#fff" fill-rule="evenodd" stroke="#000" stroke-linecap="round" stroke-linejoin="round" stroke-width=".5"/>
  <path d="m-176.84 866.12c-1.0277 14.664-3.0634 13.353 6.8144 23.231l22.302-5.8852 2.478-22.302c-17.821-4.2564-18.122-8.1589-31.594 4.9559z" fill="#fff" fill-rule="evenodd" stroke="#000" stroke-linecap="round" stroke-linejoin="round" stroke-width=".5"/>
  <path transform="matrix(1.051 0 0 .90756 -312.1 374.94)" d="m161.84 612.63c17.201 6.5789-23.294 1.7948-39.418-12.533-19.369-17.21-18.8-46.185-5.2084-64.401-4.51-4.6531-8.9243 51.538 44.627 76.934z" fill="#fca" filter="url(#j)"/>
  <path transform="matrix(.11333 -.024844 .032756 .14019 -210.84 780.03)" d="m327.29 695.78a84.853 91.924 0 1 1 -169.71 0 84.853 91.924 0 1 1 169.71 0z" fill="#0a550a" filter="url(#a)" opacity=".74211" stroke="#000" stroke-width="9.5"/>
  <path transform="matrix(.09259 -.020297 .017144 .073374 -196.45 820.53)" d="m327.29 695.78a84.853 91.924 0 1 1 -169.71 0 84.853 91.924 0 1 1 169.71 0z" filter="url(#a)" opacity=".74211" stroke="#000" stroke-width="9.5"/>
  <path transform="matrix(.054638 -.011978 .014937 .06393 -184.08 830.54)" d="m327.29 695.78a84.853 91.924 0 1 1 -169.71 0 84.853 91.924 0 1 1 169.71 0z" filter="url(#a)" opacity=".86316" stroke="#000" stroke-width="9.5"/>
  <path d="m-165.8 864.41c-1.9359 2.5812-1.4258 6.714-2.5576 5.6504s-1.4034-4.6259 0.53253-7.2071 4.4143-3.2627 5.5462-2.1991-1.5852 1.1746-3.5211 3.7558z" fill="#fff" opacity=".86316" stroke="#fff9f9" stroke-width="1.1212"/>
  <path d="m-152.66 876.34c0.40094-1.288-0.24494-2.6438 0.27826-2.4907s1.0199 1.3547 0.61898 2.6427-1.2087 2.013-1.7319 1.8599 0.43371-0.72393 0.83465-2.0119z" fill="#fff" opacity=".86316" stroke="#fff9f9" stroke-width=".43079"/>
  <path d="m-146.31 883.16-24.081 5.279-4.088-3.2694 5.59 5.3204 22.579-7.33z" fill="#2b0000" fill-rule="evenodd" stroke="#000" stroke-width=".13316"/>
  <path d="m-174.8 857.96c9.0819-4.687 18.984-3.469 25.136 0.44464" fill="none" stroke="#000" stroke-width=".69787"/>
  <path transform="matrix(-.076738 -.024021 -.022179 .13555 -80.477 781.24)" d="m327.29 695.78a84.853 91.924 0 1 1 -169.71 0 84.853 91.924 0 1 1 169.71 0z" fill="#0a550a" filter="url(#a)" opacity=".74211" stroke="#000" stroke-width="9.5"/>
  <path transform="matrix(-.062695 -.019625 -.011608 .070943 -90.22 820.4)" d="m327.29 695.78a84.853 91.924 0 1 1 -169.71 0 84.853 91.924 0 1 1 169.71 0z" filter="url(#a)" opacity=".74211" stroke="#000" stroke-width="9.5"/>
  <path transform="matrix(-.036996 -.011581 -.010114 .061812 -98.596 830.07)" d="m327.29 695.78a84.853 91.924 0 1 1 -169.71 0 84.853 91.924 0 1 1 169.71 0z" filter="url(#a)" opacity=".86316" stroke="#000" stroke-width="9.5"/>
  <path d="m-110.97 862.83c1.3108 2.4957 0.9654 6.4916 1.7318 5.4632s0.95025-4.4727-0.36059-6.9684-2.989-3.1546-3.7555-2.1262 1.0734 1.1357 2.3842 3.6314z" fill="#fff" opacity=".86316" stroke="#fff9f9" stroke-width=".90721"/>
  <path d="m-119.87 874.36c-0.27149-1.2453 0.16585-2.5562-0.18842-2.4082s-0.6906 1.3098-0.41912 2.5551 0.81842 1.9463 1.1727 1.7983-0.29367-0.69995-0.56515-1.9452z" fill="#fff" opacity=".86316" stroke="#fff9f9" stroke-width=".34857"/>
  <path d="m-124.17 880.95 16.306 5.104 2.768-3.161-3.7851 5.1441-15.289-7.0871z" fill="#2b0000" fill-rule="evenodd" stroke="#000" stroke-width=".10774"/>
  <path d="m-107.46 857.56c-6.1495-4.5317-12.855-3.354-17.02 0.4299" fill="none" stroke="#000" stroke-width=".56467"/>
  <path d="m-199.64 893.64c-3.3858 0.18059-5.2319-1.0648-7.7426-3.3774-6.9448-11.557-4.6987-20.421 3.2668-24.472m2.7381 5.8355c-5.3938 2.4399-6.2972 13.681 0.48004 14.466 1.894 0.21915 3.2326 1.4519 3.8208-0.33606 0.83488-2.5376-3.598-1.8197-4.1692-4.3894" fill="#ffb380" stroke="#000" stroke-linecap="round" stroke-linejoin="round" stroke-width=".78071"/>
  <path d="m-193.18 863.27c6.4485-20.779 29.264-41.108 46.223-7.898-14.556-12.333-38.084-2.028-46.223 7.898z" fill="#fff" opacity=".93" stroke="#000" stroke-opacity=".81818" stroke-width=".58578"/>
  <path transform="translate(120.21 59.693)" d="m-222.4 774.22s8.6729 2.478 9.9119 7.4339 2.478 0.61949-0.61949 11.151 0.61949 9.9119-2.478 15.487-4.9559 6.1949-4.9559 6.1949l1.239-22.921-3.0975-17.346z" fill="#e6e6e6" fill-rule="evenodd" stroke="#000" stroke-linecap="round" stroke-linejoin="round" stroke-width=".5"/>
  <path d="m-96.949 855.19c-4.4349-10.833-20.203-25.788-33.349-8.5755 8.9158 5.49 28.02-0.85935 33.349 8.5755z" fill="#fff" opacity=".93" stroke="#000" stroke-opacity=".81818" stroke-width=".42932"/>
  <path transform="matrix(1.0787 -.36603 .16847 .75795 -404.23 515.15)" d="m162.39 558.78-0.51331 19.545-4.1983-4.617 4.7116-14.928z" fill="#fca" filter="url(#i)"/>
  <path transform="translate(120.21 59.693)" d="m-275.67 934.67c-3.997 9.5074-24.86 23.509-32.214 15.487-3.717-5.5754-4.9559-12.39-4.9559-12.39l-2.478 14.868c19.643 17.973 28.126-2.4696 40.887-11.151 4.3364-1.8585 1.239-4.9559 1.239-4.9559l-2.478-1.8585z" fill="#faca58" fill-rule="evenodd" stroke="#000" stroke-linecap="round" stroke-linejoin="round" stroke-width=".5"/>
  <path d="m-201.79 981.1c-2.1146 2.011-3.5492 5.4231-4.046 9.5127-0.91363 4.3876-1.0543 9.7335 1.6283 12.176 1.3099 1.1926 2.3972 2.5929 3.9387 4.7759 0.71177 1.008 3.1726 1.2754 5.2836 0.6638 0.66798-0.1936 1.5757 0.0108 2.3416-0.1159 1.2073-0.1999 1.6741-1.001 2.5065-1.2452 7.2921-2.1393 1.7735-5.2307 0.54671-7.3998-2.3904-4.2263-1.2534-9.0153 2.3241-3.722 0.82791 1.225-0.55691 1.3305-0.7895 3.7216-0.04773 0.49068 1.6521 3.9889 3.0572 2.2473 4.8221-5.977-0.08188-11.639-2.7462-18.955" fill="#ffb380" stroke="#000" stroke-linecap="round" stroke-linejoin="round" stroke-width="1.0456"/>
  <path d="m-199.99 996.44 1.7577 6.1471 3.4327 5.455" fill="none" stroke="#000" stroke-width="1.0787"/>
  <path d="m-203.76 995.89 1.106 6.9248 1.4225 3.228" fill="none" stroke="#000" stroke-width="1.0787"/>
  <path d="m-195.42 997.14 2.2296 5.1774 2.9972 4.3685" fill="none" stroke="#000" stroke-width="1.0787"/>
  <path d="m-101.49 956.76c-2.7115 1.7044-4.7676 7.3257-5.9543 11.276" fill="none" stroke="#000" stroke-width=".91585"/>
  <path transform="translate(120.21 59.693)" d="m-193.28 884.49 1.239-30.975s2.478 0.61949 3.717-3.0975 4.3364-6.1949 0-8.0534-8.0534 0.6195-8.0534-8.6729 3.0975-23.541 3.0975-23.541 17.346-13.629 22.302 0 7.4339 24.16 0 23.541-12.39-4.3364-9.2924 1.239 6.8144 5.5754 5.5754 9.9119-7.4339 4.3364-8.6729 8.0534-2.478 16.726-1.8585 21.063-0.61949 21.063-1.239 33.453-1.8585 24.78-3.0975 40.887-4.3364 27.258-2.478 32.833 8.0534 10.531 0.61949 6.1949-17.346-6.8144-15.487-12.39 4.3364-11.77 6.1949-16.726 4.956-10.531 3.0975-19.204-3.717-10.531-2.478-14.868 1.8585 3.0975 3.717-11.77 1.8585-17.965 1.8585-17.965l1.239-9.9119z" fill="url(#f)" fill-rule="evenodd" stroke="#000" stroke-linecap="round" stroke-linejoin="round" stroke-width=".5"/>
  <path d="m-88.482 952.06c1.0747-2.7717 7.202-6.3825 10.286-7.442 2.3334-0.80158 11.39 2.1363 11.398 2.9732 0.01335 1.3819-1.317 3.1426-4.1831 2.155-6.6967-0.32329-0.41179 2.8152 3.8714 1.3495 1.2427-0.32744 13.28-1.1574 6.3437 2.5976 3.7112-0.25056 7.9338 1.4518 2.2854 3.9213 4.2877 0.58359 0.03403 3.2438-1.3384 4.5515 3.5386 3.6498-9.3917 7.1898-16.283 6.5369-3.685-0.70333-6.6184-2.2304-8.7588-4.1897" fill="#ffb380" stroke="#000" stroke-linecap="round" stroke-linejoin="round" stroke-width="1.0057"/>
  <path d="m-58.996 961.64c-3.8663 0.30802-9.438 3.5339-13.271 1.8385" fill="none" stroke="#000" stroke-width=".66246"/>
  <path d="m-57.154 957.13c-4.7138 1.0794-11.478 2.3655-13.449 1.3275" fill="none" stroke="#000" stroke-width=".66246"/>
  <path d="m-60.593 953.91c-8.5064 0.8529-8.201 1.7792-11.468 0.75061" fill="none" stroke="#000" stroke-width=".66246"/>
  <path d="m-73.113 950.11c-2.9689 3.8114-5.9379 4.3665-8.9068 4.5378" fill="none" stroke="#000" stroke-width=".91585"/>
  <path d="m-74.242 955.45-0.94863 7.9993" fill="none" stroke="#000" stroke-width=".91585"/>
  <path transform="translate(120.21 59.693)" d="m-313.46 771.74s-5.5754 8.0534-1.8585 14.868-1.8585 9.9119-0.61949 16.107 3.0975 13.009 0 9.2924-3.717-8.3632-7.4339-6.5047-6.5047 4.3364-6.5047 4.3364-1.5487 9.6021-4.0267 1.5487-5.5754-9.2924-3.717-21.682 6.1949-13.629 10.531-16.726 2.478-18.585 6.8144-15.487 7.4339 0.61949 9.9119 1.239 2.478 5.5754 2.478 5.5754l-5.5754 7.4339z" fill="#e6e6e6" fill-rule="evenodd" stroke="#000" stroke-linecap="round" stroke-linejoin="round" stroke-width=".5"/>
  <path transform="translate(120.21 59.693)" d="m-337 845.46s17.965 14.248 31.594 21.063 35.931 15.487 39.028 18.585 1.8585 55.135 1.8585 55.135l8.0534-0.61949s-2.478-43.984 0-50.798 3.0975-8.0534 8.6729-11.77 6.1949-6.8144 16.107-9.9119c19.834-4.0411 19.586-13.123 21.682-30.975l-5.5754 0.61949c-2.9443 21.028-1.1858 20.591-18.585 27.258-6.8144 3.0975-17.346 8.6729-21.682 14.248s-7.4339 3.717-9.9119 1.239-31.594-13.629-40.887-17.965-23.541-17.346-23.541-17.346l-6.8144 1.239z" fill="#faca58" fill-rule="evenodd" stroke="#000" stroke-linecap="round" stroke-linejoin="round" stroke-width=".5"/>
  <path transform="translate(120.21 59.693)" d="m-249.66 933.43c5.9222 7.6878 13.673 13.851 23.541 14.868l0.6195 3.717c-5.3577 2.4244-19.479-8.2238-24.16-13.629-1.8585-2.478-1.8585-4.3364 0-4.9559z" fill="#faca58" fill-rule="evenodd" stroke="#000" stroke-linecap="round" stroke-linejoin="round" stroke-width=".5"/>
  <path transform="matrix(1.5147 .22844 -.23069 1.4999 -356.95 -24.34)" d="m212.88 617.43 7.2864-2.3308c9.4929 7.1736 3.4979 49.783 8.0757 60.775l-20.828 4.9284 5.4661-63.373z" fill="#e9afaf" filter="url(#g)" opacity=".42105" stroke="#c0343d" stroke-linecap="round" stroke-linejoin="round" stroke-width=".67065"/>
  <path transform="translate(120.21 59.693)" d="m-337 845.46s17.965 14.248 31.594 21.063 35.931 15.487 39.028 18.585 1.8585 55.135 1.8585 55.135l8.0534-0.61949s-2.478-43.984 0-50.798 3.0975-8.0534 8.6729-11.77 6.1949-6.8144 16.107-9.9119c19.834-4.0411 19.586-13.123 21.682-30.975l-5.5754 0.61949c-2.9443 21.028-1.1858 20.591-18.585 27.258-6.8144 3.0975-17.346 8.6729-21.682 14.248s-7.4339 3.717-9.9119 1.239-31.594-13.629-40.887-17.965-23.541-17.346-23.541-17.346l-6.8144 1.239z" fill="url(#k)" fill-rule="evenodd" stroke="#000" stroke-linecap="round" stroke-linejoin="round" stroke-width=".5"/>
  <path transform="translate(120.21 59.693)" d="m-327.71 902.45-3.0975 8.0534s6.8144 5.5754 12.39 6.1949c8.2846 0.1332 13.287 7.3196 14.248 4.3364 1.239-5.5754 4.3364-7.4339 1.239-7.4339s2.7877 1.239-6.8144-0.61949c-9.5199-1.8426-7.4339-4.3364-13.009-6.8144s-6.8144-3.717-4.9559-3.717z" fill="#faca58" fill-rule="evenodd" stroke="#000" stroke-linecap="round" stroke-linejoin="round"/>
  <path transform="translate(120.21 59.693)" d="m-216.2 895.02s-1.8585-3.0975-5.5754-1.239-4.9559 5.5754-6.8144 8.0534-4.3364 4.3364-4.3364 4.3364l1.8585 9.9119s0-0.61949 6.1949-7.4339 3.717-1.8585 7.4339-7.4339 3.717-6.1949 1.239-6.1949z" fill="#faca58" fill-rule="evenodd" stroke="#000" stroke-linecap="round" stroke-linejoin="round"/>
  <path transform="translate(120.21 59.693)" d="m-287.44 856.61s-4.3364 4.3364-1.8585 9.2924l6.8144 13.629 4.9559-8.6729 6.8144 9.2924 3.717-4.956 5.5754 11.151 5.5754-6.1949 3.0975 2.478 6.1949-11.151 5.5754 0.61949 3.717-5.5754 4.9559 1.239 1.8585-6.8144 1.8585-9.2924-3.0975-8.6729s-19.204 5.5754-30.975 6.1949-16.726-1.239-19.824 1.8585-5.5754 5.5754-4.9559 5.5754z" fill="#e6e6e6" fill-rule="evenodd" stroke="#000" stroke-linecap="round" stroke-linejoin="round" stroke-width=".5"/>
  <g transform="matrix(.2106 0 0 .31696 -204.65 800.93)" stroke="#000" stroke-width="3.8704">
   <path d="m317.5 375.22c-55.5-1.7357-98.502 20.552-100.36-15.357-1.9002-36.777 40.443-22.487 97.5-31.786 59.141-9.6389 108.92-56.599 116.78 7.7321s-78.827 36.718-113.93 39.411z" fill="#fff"/>
   <path d="m431.43 335.93c-4.3056 1.5532-13.836 0.44988-21.899 2.4269-7.5764 1.8579-18.689 8.2821-23.013 8.106-9.0246-0.36751-15.764-3.2765-23.622-1.7563-15.358 2.9709-21.707 12.95-33.61 6.9376" fill="none"/>
  </g>
  <path transform="translate(120.21 59.693)" d="m-265.14 836.79c-12.39 3.717-17.346-0.61949-19.204 9.2924s-17.346 24.78-5.5754 18.585 11.151-7.4339 15.487-11.77 3.0975-1.8585 8.6729-1.8585 3.4959-3.3752 6.8144-3.717c7.1434-0.7357 5.3097-4.8144 7.1242-3.0974 3.2448 3.0704 5.2657 3.0974 7.1242 0.61948s0-8.6729 5.5754-3.717 22.302 26.638 17.346 14.868-11.151-20.443-13.629-21.682-2.478-4.9559-11.151-0.61949-7.4339 8.0534-12.39 4.9559-6.1949-3.0975-6.1949-1.8585z" fill="#e6e6e6" fill-rule="evenodd" stroke="#000" stroke-linecap="round" stroke-linejoin="round" stroke-width=".5"/>
  <path transform="matrix(1.3099 0 0 1.475 201.86 -308.36)" d="m-251.51 762.45a21.992 12.39 0 1 1 -43.984 0 21.992 12.39 0 1 1 43.984 0z" fill="url(#d)" fill-rule="evenodd"/>
  <path transform="translate(120.21 59.693)" d="m-192.97 890.06-3.0975 20.753 9.6021 0.30975 1.5487-21.372-6.1949 1.239-1.8585-0.92924z" fill="#7b4231" fill-rule="evenodd"/>
  <path transform="translate(115.25 50.4)" d="m-161.69 823.78a11.461 14.868 0 1 1 -22.921 0 11.461 14.868 0 1 1 22.921 0z" fill="url(#c)" fill-rule="evenodd"/>
  <path transform="translate(120.21 59.693)" d="m-322.76 984.23-1.8585 11.151s2.478 0.6195 4.3364-1.8585c8.4563-6.7104 22.26-7.9023 32.214-4.3364 10.822 9.2339 22.101 15.378 36.55 9.9119 11.7-4.8083 22.573-10.95 33.453-17.346l-1.8585-5.5754s-6.1949 1.239-10.531 3.717c-7.9681 6.5518-28.82 19.709-38.409 13.629-9.5618-11.959-31.87-18.835-46.462-14.868-6.1949 3.0975-9.2924 6.1949-7.4339 5.5754z" fill="#faca58" fill-rule="evenodd" stroke="#000" stroke-linecap="round" stroke-linejoin="round"/>
  <path transform="matrix(1.5377 0 0 1.5377 -285.03 802.82)" d="m149.91 74.829-5.6372-19.417-17.738 10.786 11.666-16.514-19.492-7.143 20.185-1.1752-6.5685-19.693 13.504 15.048 11.301-17.414-3.3458 19.94 20.661-2.0217-17.676 9.8166 14.462 14.893-18.696-7.699-2.6265 20.593z" fill="url(#e)" fill-rule="evenodd"/>
  <path d="m-154.31 888.82c-9.0819 4.687-18.984 3.469-25.136-0.44464" fill="none" stroke="#000" stroke-width=".69787"/>
  <path d="m-103.43 886.96c-6.1495 4.5317-12.855 3.354-17.02-0.4299" fill="none" stroke="#000" stroke-width=".56467"/>
  <path d="m-154.62 891.61c-9.0819 4.687-18.984 3.469-25.136-0.44464" fill="none" stroke="#000" stroke-width=".69787"/>
  <path d="m-103.43 889.13c-6.1495 4.5317-12.855 3.354-17.02-0.4299" fill="none" stroke="#000" stroke-width=".56467"/>
 </g>
</svg>
