<svg version="1" xmlns="http://www.w3.org/2000/svg" width="1066.667" height="1066.667" viewBox="0 0 800.000000 800.000000"><path d="M525.6 91.9c-.1.3-.2 27-.1 59.3 0 51.9-.1 58.8-1.5 58.9-.8 0-87.4.2-192.5.4-105 .2-192.5.6-194.3.8-1.9.2-3.7.9-4.1 1.5-.4.7-2.2 1.4-3.9 1.5-1.8.1-3.2.5-3.2.9s-.9 1.6-2.1 2.6c-1.8 1.8-2.1 3.4-2.4 15.4-.2 7.4.1 14.1.6 14.9.5.8.9 1 .9.5 0-1.1 6 5.4 6 6.5 0 .9 3.3 1.4 5.5.9.6-.1 1.9-.2 3-.1 9.8.5 16.8.5 17.2-.2.2-.4.9-.4 1.5 0 1.6.9 13.9 1 14.5 0 .2-.4.9-.4 1.5 0 1.6.9 13.9 1 14.5 0 .2-.4.9-.4 1.5 0 1.6.9 13.9 1 14.5 0 .2-.4.9-.4 1.5 0 1.6.9 13.9 1 14.5 0 .2-.4.9-.4 1.5 0 1.6.9 13.9 1 14.5 0 .2-.4.9-.4 1.5 0 1.6.9 13.9 1 14.5 0 .2-.4.9-.4 1.5-.1 1.4.9 8.2.9 9.5.1.6-.4 1.3-.4 1.7 0 .9.9 11.5 1 10.9.1-.2-.5.6-.4 1.9 0 1.3.4 3.7.6 5.3.5 1.7-.2 4-.3 5.3-.3h227.5c1.2 0 4.2.1 6.7.3l4.5.2.1 39c.1 21.4.2 39.6.3 40.2.2 1.9 129.1 1.9 129.2 0 .1-.6.2-18.7.3-40 .1-41.5.1-41.5 5-39.8 1.2.3 3.5.5 5.1.4 3.6-.3 5.5-.3 12 0 2.8.1 5.5-.1 6.2-.6.6-.4 1.4-.4 1.7.1.5.9 7.5.7 8.4-.3.5-.5.6-39.1.1-40.5-.1-.3-.1-1.3 0-2.3.3-2 1.2-1.9-19.9-2.3-8.5-.1-16.2-.3-17.1-.3-1.3-.1-1.6-2.2-1.6-15.4-.1-8.3-.1-16.6-.2-18.2-.1-2.2-1.5-4.6-4.6-8-2.5-2.8-4.5-4.6-4.6-4 0 .5-.4 0-.9-1.3-.5-1.2-1.6-2.2-2.5-2.2-.8 0-1.5-.5-1.5-1 0-1.3-9.7-11-11-11-.6 0-1-.5-1-1 0-.6-6.2-7.1-13.7-14.6-7.6-7.5-13.7-14.1-13.5-14.5.1-.5-.3-.9-.9-.9-.7 0-2.6-1.5-4.3-3.3-1.7-1.8-3.9-3.6-4.8-4-1-.3-1.8-1.3-1.8-2.1 0-.7-.9-1.6-2-1.9-1.1-.3-2-1.2-2-2.1 0-.9-.7-1.6-1.5-1.6-.9 0-1.9-.8-2.2-1.8-.4-.9-2.2-3.1-4-4.8-1.8-1.7-3.3-3.6-3.3-4.1 0-1-48.9-1.4-49.4-.4zM153.7 371.6c-.3.4-16.1.8-34.9.9-18.9.2-34.6.3-35 .4-.5 0-.8.7-.8 1.5 0 .7-.8 1.6-1.9 1.9-1.7.4-1.8 2.1-1.6 35.9.1 19.5.5 35.9.8 36.5.4.7.3 1.4-.2 1.8-1.2.7.6 6.5 2 6.5.5 0 .9.6.9 1.3 0 .8.6 1.5 1.3 1.6.6.1 22.1.3 47.7.5 42.5.2 46.5.4 46.8 1.9.4 1.8.4 1.8 7.2 2.1 2.6.1 4.5.7 4.5 1.3 0 1.6.7 2.1 3.8 2.7 1.6.3 4.6 2.1 6.7 4 2.2 2 5.1 3.8 6.5 4.2 1.4.3 2.5 1 2.5 1.5s.6.9 1.4.9c.8 0 1.7.9 2.1 1.9.3 1 1.5 2.1 2.5 2.4 1.1.3 2 1.2 2 2.1 0 .9.7 1.6 1.5 1.6s1.5.6 1.5 1.4c0 .8.9 1.8 2 2.1 1.1.3 2 .9 2.1 1.3.4 3.6 1.3 5.9 2.9 7.4 1.1 1 2 2.3 2 2.8 0 .6.5.9 1.1.7.7-.1 1.6 1.4 2.1 3.2.5 1.9 1.6 4 2.3 4.5 1.2.9 1.6 2.8 2.4 10.8.1.5.8.8 1.6.8 1.3 0 1.5 2.6 1.5 17.4 0 16.1-.1 17.4-1.9 17.9-1.2.3-1.8 1.4-1.8 3.2 0 1.6-.7 3.3-1.5 3.9-.9.6-1.9 2.6-2.2 4.3-.4 1.8-1.5 3.5-2.5 3.8-1.2.3-1.8 1.6-1.9 3.7 0 1.7-.6 3.6-1.1 4.1-.6.6-1.1.8-1.1.5 0-.3-3 2.4-6.7 6-3.7 3.7-6.6 7-6.5 7.4.1.5-.2.8-.7.8-.5 0-2.7 1.8-4.9 4-2.1 2.2-4.8 4-5.9 4-1.1 0-2.8.9-3.8 2s-2.8 2-3.9 2c-2.4 0-4.8 1.3-4.7 2.6.1.4-1.1.9-2.6 1.1-1.6.2-3.5 1.1-4.3 2.1-1.1 1.3-3.5 1.8-9.5 2-6.1.2-8.3.7-9.3 2-.7.9-1.8 1.6-2.3 1.4-.5-.1-1 .1-1 .5-.1.5-.2 19.2-.3 41.6-.1 30.8.1 41.1 1 41.8.8.7 20.6 1 55.1.9 61.9 0 71.9-.2 72.9-1.2.4-.4.9-5.4 1.1-11 .2-6.6.8-10.5 1.6-11 .6-.4 1.3-1.9 1.4-3.4.1-1.4 1-3.5 1.9-4.6 1-1 1.9-2.9 2.1-4.1.2-1.2 1.9-3.6 3.8-5.3 2.2-1.9 3.6-4.1 3.7-5.9.2-1.7.9-3 2-3.3 1-.2 1.8-.9 1.8-1.4 0-1.2 5.6-6.8 6.8-6.8.5 0 1.2-.9 1.5-2 .3-1.1 1.2-2 2-2s1.7-.9 2-2c.4-1.4 1.4-2 3.5-2s3.8-.9 5.8-3.3c3.2-3.6 3.4-3.7 6.8-3.7 1.5 0 2.7-.7 3.1-1.9.3-1.2 1.5-1.8 3.3-1.9 8.3 0 10.2-.3 11.7-1.8 2.4-2.4 22.9-2.5 24.7-.1.7.9 3.2 1.8 5.5 2 2.3.2 4.9 1.1 5.8 2 .9 1 2.5 1.7 3.5 1.7s2.6.8 3.6 1.7c.9.9 2.6 1.9 3.8 2 1.1.2 2.6 1 3.2 1.8.6.8 1.5 1.5 2 1.5s1.7.9 2.7 2c.9 1.1 2.8 2 4.1 2 1.6 0 2.7.7 3.1 2 .3 1.1 1.2 2 2 2s1.7.9 2 2c.3 1.1 1.3 2 2.1 2s1.4 1 1.4 2.5 1.6 4.1 4.5 7.1c2.5 2.5 4.5 5 4.5 5.5s.5.8 1.1.6c.6-.1 1.4 1.1 1.6 2.8.2 1.6 1.3 3.8 2.4 4.8 1.3 1.2 1.9 3.1 1.9 6s.5 4.6 1.8 5.3c1.4.9 1.8 2.7 2 9.4.1 4.5.4 8.5.7 9 .6 1 11.3 1.2 63.5 1 51.6-.1 63.2-.4 64.7-1.3.8-.5 1.2-7.5 1.3-22.2.1-20-.1-21.5-1.7-21.6-1-.1-4.2-.3-7.1-.4-3.7-.2-5.8-.9-6.7-2.1-1.2-1.7-2.4-1.9-12.7-2.3-1.8-.1-2.8-.7-2.8-1.6 0-.8-.6-1.6-1.2-1.6-.7-.1-1.7-.2-2.3-.4-.5-.1-1.8-.3-2.8-.3-1-.1-1.5-.7-1.2-1.3.4-.6-.2-1.3-1.4-1.6-1.2-.3-2.1-1.1-2.1-1.8 0-1.4-2.2-2.5-5-2.5-1.1 0-2.4-.9-3-2-.6-1.1-1.7-2-2.5-2s-1.5-.9-1.5-2c0-1.3-.7-2-2-2-1.1 0-2-.5-2-1 0-.6-2.5-3.5-5.6-6.6-4.4-4.3-5.5-6-5.2-7.9.4-1.7-.1-2.6-1.9-3.4-1.3-.6-2.3-1.4-2.2-1.8.4-2.3-.3-4.3-1.8-5.9-1-.9-1.9-2.9-2.1-4.3-.1-1.4-1-3.2-1.9-3.8-1.2-.9-1.7-3.3-1.9-9.3-.2-6.9-.6-8.3-2.5-9.9l-2.2-1.8 2.2-2c1.9-1.8 2.3-3.3 2.6-10.5.3-10.3.2-9.8 2-9.8 1.4 0 1.6-.6 1.9-5 .1-.8.9-1.6 1.9-1.8 1.1-.2 1.7-1.3 1.7-3.2 0-1.9 1.2-4 3.5-6.4 1.9-2 3.5-4.5 3.5-5.7 0-2.1 9.1-11.9 11-11.9.6 0 .9-.4.5-.9-.6-1.1 1.2-2.4 4-2.8 1.1-.2 2.8-1.3 3.7-2.4 1-1.2 1.8-1.8 1.8-1.4 0 .5 1.1-.4 2.4-1.8 1.6-1.7 3.2-2.5 5-2.3 2 .3 2.6-.1 2.6-1.5s1-2 4-2.5c2.2-.4 4-1.2 4-1.9 0-2 1.3-2.1 18.2-1.9 15.2.1 15.7.1 16.2-2s.9-2.1 26.7-2.2c22.6-.1 26.4-.4 27.4-1.7.9-1.2 3.6-1.7 11.5-2.1 8-.3 10.7-.8 11.6-2 .7-1.1 2.7-1.6 5.6-1.6 3.4 0 4.9-.5 5.9-2 1-1.3 2.7-2 5.7-2.2 2.6-.1 4.9-.9 5.9-2 .9-1 2.9-1.8 4.5-1.8 1.8 0 2.8-.5 2.8-1.5 0-.8.3-1.5.8-1.6 3-.3 5.7-1.1 7.5-2.4 1.2-.8 3.2-1.5 4.5-1.5 1.5 0 2.6-.7 2.9-2 .3-1.1.9-2 1.4-2 .5 0 1.8-.9 2.9-2 1.1-1.1 3.1-2 4.4-2 2 0 2.5-.6 3.1-4 .4-2.2 1-3.8 1.4-3.7 1.5.5 10.1-10.4 10.1-12.8 0-1.4.4-2.5.9-2.5 1.3 0 2.3-3.5 2.5-9.1.2-2.6.8-5.4 1.5-6.2 1.9-2.4 3.3-11.7 2-13.8-.5-.8-29.3-1.2-102-1.3l-101.3-.1-.1-20.8c0-22.3-.3-23.5-5.1-21.7-1.2.5-2.4.6-2.7.4-.8-.9-7-1-9.8-.3-1.5.4-3.2.3-4-.1-.7-.5-2.1-.4-3 .1-1.2.6-2 .5-2.4-.1-.5-.8-1.1-.8-1.9-.1-.7.6-1.5.9-1.7.6-.3-.2-3.6-.4-7.4-.4-8.8-.1-10.2-.1-11.7-.2h-4.3c-1.6.1-4.3 0-6-.2-1.6-.1-4.2.1-5.6.4-1.5.4-3.2.3-4-.1-.7-.5-2.1-.4-3 .1-1.2.6-2 .5-2.4-.1-.5-.8-1.1-.8-1.9-.1-.7.6-1.5.9-1.7.6-.3-.2-3.6-.4-7.4-.4-8.8-.1-10.2-.1-11.7-.2h-4.3c-1.6.1-4.3 0-6-.2-1.6-.1-4.2.1-5.6.4-1.5.4-3.2.3-4-.1-.7-.5-2.1-.4-3 .1-1.2.6-2 .5-2.4-.1-.5-.8-1.1-.8-1.9-.1-.7.6-1.5.9-1.7.6-.3-.2-3.6-.4-7.4-.4-7.6-.1-8.6-.1-15.8-.2-2.7 0-5.1.2-5.3.4-.3.3-2.1.1-4-.3-1.8-.4-3.4-.4-3.4.1 0 .4-1 .5-2.2 0-1.3-.4-3.5-.5-5 0-1.6.4-2.8.4-2.8-.1 0-.4-1.5-.5-3.3-.1-1.8.5-4.1.5-5.2.1-1.1-.4-3.1-.4-4.5 0s-4 .3-5.7-.1c-1.8-.4-3.3-.3-3.3.2 0 .4-1 .5-2.2 0-1.3-.4-3.5-.5-5 0-1.6.4-2.8.4-2.8-.1 0-.4-1.5-.5-3.3-.1-1.8.5-4.1.5-5.2.1-1.1-.4-3.1-.4-4.5 0s-4 .3-5.7-.1c-1.8-.4-3.3-.3-3.3.2 0 .4-1 .5-2.2 0-1.3-.4-3.5-.5-5 0-1.6.4-2.8.4-2.8-.1s-1.2-.5-2.7-.1c-1.6.5-3.7.5-4.8.1-1.1-.4-3.4-.4-5.2.1-1.8.4-3.3.3-3.3-.1 0-.5-1.2-.5-2.7-.1-1.6.5-3.7.5-4.8.1-1.1-.4-3.4-.4-5.2.1-1.8.4-3.6.3-3.9-.2-.3-.5-1-.7-1.5-.3-1.1.6-7.4.7-14.1.2-2-.2-3.4.1-3.1.5.3.5-.3.6-1.4.3-1.1-.3-4.2-.6-6.9-.6h-10.9c-3.3-.1-6.7-.1-7.5-.1-15.2.2-19.2.1-20-.4-.5-.3-1-.1-1 .5 0 .7-.8.9-2.2.4-1.3-.4-3.2-.7-4.3-.5-6.5.6-35.5.5-35.8-.2-.1-.5-.6-.5-1-.1z"/></svg>